<?xml version="1.0" encoding="utf-8"?>
<!-- Generator: Adobe Illustrator 19.0.1, SVG Export Plug-In . SVG Version: 6.00 Build 0)  -->
<svg version="1.1" id="Layer_1" xmlns="http://www.w3.org/2000/svg" xmlns:xlink="http://www.w3.org/1999/xlink" x="0px" y="0px"
	 viewBox="0 0 146.5 116.6" style="enable-background:new 0 0 146.5 116.6;" xml:space="preserve">
<style type="text/css">
	.st0{fill:#FFFFFF;stroke:#000000;stroke-width:5;stroke-linecap:round;stroke-miterlimit:10;}
	.st1{fill:none;stroke:#000000;stroke-miterlimit:10;}
	.st2{fill:none;stroke:#000000;stroke-width:5;stroke-miterlimit:10;}
	.st3{font-family:'Nord';}
	.st4{font-size:109.3977px;}
</style>
<path d="M-189.5-105.9c-76.5,0-138.5,62-138.5,138.5s62,138.5,138.5,138.5S-51,109.1-51,32.6S-113-105.9-189.5-105.9z M-189.5,164.1
	c-72.6,0-131.5-58.9-131.5-131.5s58.9-131.5,131.5-131.5S-58-40.1-58,32.6S-116.9,164.1-189.5,164.1z"/>
<text transform="matrix(0.511 0 0 1 -239.3336 152.7396)" class="st3" style="font-size:350px;">H</text>
<text transform="matrix(1 0 0 1 -211.9998 114.0909)" class="st3" style="font-size:79.7659px;">T</text>
<path d="M-254.5,19.6c0,0-3-23.5-25-19C-277.5,8.1-274,23.1-254.5,19.6z"/>
<path d="M-122.5,19.6c0,0,3-23.5,25-19C-99.5,8.1-103,23.1-122.5,19.6z"/>
<path d="M-177.7,69.8h-21.2c-5.8,0-10.4-4.7-10.4-10.4v-0.8c0-5.8,4.7-10.4,10.4-10.4h21.2c5.8,0,10.4,4.7,10.4,10.4v0.8
	C-167.3,65.1-171.9,69.8-177.7,69.8z"/>
<line class="st0" x1="-189.3" y1="112.1" x2="-207" y2="129.1"/>
<line class="st0" x1="-187.1" y1="110.9" x2="-169.4" y2="127.9"/>
<text transform="matrix(1 0 0 1 -20.0378 -104.8778)" style="font-family:'BigJohn'; font-size:50px;">H</text>
<polygon class="st1" points="-19.7,-87.4 -39,-122.4 -19.7,-157.4 18.8,-157.4 38,-122.4 18.8,-87.4 "/>
<circle class="st2" cx="74.1" cy="59.2" r="48.4"/>
<text transform="matrix(1 0 0 1 41.7778 99.0613)" class="st3 st4">H</text>
<text transform="matrix(1 0 0 1 39.59 99.0609)" class="st3 st4">T</text>
</svg>
